<svg xmlns="http://www.w3.org/2000/svg" version="1.1" xmlns:xlink="http://www.w3.org/1999/xlink" xmlns:svgjs="http://svgjs.dev/svgjs" viewBox="0 0 600 600"><path d="M189.52096557617188,522.7545166015625C175.74851099650064,560.0299631754557,106.43712870279948,587.1257273356119,91.61676788330078,516.467041015625C76.79640706380208,445.808354695638,67.81436793009439,147.7544911702474,100.59880065917969,98.80239868164062C133.38323338826498,49.85030619303385,226.49701690673828,225.89819971720377,288.3233642578125,222.75448608398438C350.1497116088867,219.61077245076498,434.88023885091144,29.191617329915367,471.556884765625,79.94011688232422C508.23353068033856,130.68861643473306,520.9580891927084,453.44308344523114,508.38323974609375,527.2454833984375C495.8083902994792,601.0478833516439,414.3712615966797,556.8862508138021,396.1077880859375,522.7545166015625C377.8443145751953,488.62278238932294,416.4670715332031,344.7604726155599,398.8023986816406,322.455078125C381.1377258300781,300.1496836344401,327.54490152994794,393.8622690836589,290.1197509765625,388.9221496582031C252.6946004231771,383.9820302327474,191.01795959472656,270.50896708170575,174.25149536132812,292.8143615722656C157.4850311279297,315.1197560628255,203.2934201558431,485.47907002766925,189.52096557617188,522.7545166015625C175.74851099650064,560.0299631754557,106.43712870279948,587.1257273356119,91.61676788330078,516.467041015625" fill="hsl(30, 100%, 50%)" stroke-width="0" stroke="hsl(340, 45%, 30%)"></path><defs></defs></svg>
